<svg xmlns="http://www.w3.org/2000/svg" width="36.611" height="31.729" viewBox="0 0 36.611 31.729">
  <g id="bed" transform="translate(0 -32)">
    <g id="Group_724" data-name="Group 724" transform="translate(0 32)">
      <g id="Group_723" data-name="Group 723" transform="translate(0 0)">
        <path id="Path_1447" data-name="Path 1447" d="M36,50.305h-.61V48.475a3.051,3.051,0,0,0-1.831-2.792V36.271a.61.61,0,0,0-.366-.559,2.415,2.415,0,0,0,.366-1.272,2.441,2.441,0,1,0-4.881,0,2.416,2.416,0,0,0,.339,1.22H7.593a2.416,2.416,0,0,0,.339-1.22,2.441,2.441,0,1,0-4.881,0,2.415,2.415,0,0,0,.366,1.272.61.61,0,0,0-.366.559v9.411A3.051,3.051,0,0,0,1.22,48.475v1.831H.61a.61.61,0,0,0-.61.61v8.543a.61.61,0,0,0,.61.61h.61v3.051a.61.61,0,0,0,.61.61H4.271a.61.61,0,0,0,.61-.61V60.068H31.729v3.051a.61.61,0,0,0,.61.61H34.78a.61.61,0,0,0,.61-.61V60.068H36a.61.61,0,0,0,.61-.61V50.916A.61.61,0,0,0,36,50.305ZM31.119,33.22a1.22,1.22,0,1,1-1.22,1.22A1.22,1.22,0,0,1,31.119,33.22Zm-25.628,0a1.22,1.22,0,1,1-1.22,1.22A1.22,1.22,0,0,1,5.492,33.22Zm-1.22,3.661H32.34v8.543H29.883a3.019,3.019,0,0,0,.626-1.831v-1.22a3.055,3.055,0,0,0-3.051-3.051H22.577a3.055,3.055,0,0,0-3.051,3.051v1.22a3.019,3.019,0,0,0,.626,1.831H16.459a3.019,3.019,0,0,0,.626-1.831v-1.22a3.055,3.055,0,0,0-3.051-3.051H9.153A3.055,3.055,0,0,0,6.1,42.373v1.22a3.019,3.019,0,0,0,.626,1.831H4.271Zm25.017,5.492v1.22a1.831,1.831,0,0,1-1.831,1.831H22.577a1.831,1.831,0,0,1-1.831-1.831v-1.22a1.831,1.831,0,0,1,1.831-1.831h4.881A1.831,1.831,0,0,1,29.289,42.373Zm-13.424,0v1.22a1.831,1.831,0,0,1-1.831,1.831H9.153a1.831,1.831,0,0,1-1.831-1.831v-1.22a1.831,1.831,0,0,1,1.831-1.831h4.881A1.831,1.831,0,0,1,15.865,42.373Zm-13.424,6.1a1.831,1.831,0,0,1,1.831-1.831H32.34a1.831,1.831,0,0,1,1.831,1.831v1.831H2.441Zm1.22,14.034H2.441V60.068h1.22Zm30.509,0H32.95V60.068h1.22Zm1.22-3.661H1.22V51.526H35.39Z" transform="translate(0 -32)" fill="#bb901a"/>
      </g>
    </g>
    <g id="Group_726" data-name="Group 726" transform="translate(2.441 56.407)">
      <g id="Group_725" data-name="Group 725" transform="translate(0 0)">
        <path id="Path_1448" data-name="Path 1448" d="M35.051,352H32.61a.61.61,0,0,0,0,1.22h2.441a.61.61,0,1,0,0-1.22Z" transform="translate(-32 -352)" fill="#bb901a"/>
      </g>
    </g>
    <g id="Group_728" data-name="Group 728" transform="translate(7.322 56.407)">
      <g id="Group_727" data-name="Group 727" transform="translate(0 0)">
        <path id="Path_1449" data-name="Path 1449" d="M122.238,352H96.61a.61.61,0,1,0,0,1.22h25.628a.61.61,0,0,0,0-1.22Z" transform="translate(-96 -352)" fill="#bb901a"/>
      </g>
    </g>
  </g>
</svg>
