<svg xmlns="http://www.w3.org/2000/svg" width="34.706" height="38.567" viewBox="0 0 34.706 38.567">
  <path id="Path_1442" data-name="Path 1442" d="M53.15,18.941h2.69a1.1,1.1,0,0,0,1.1-1.1v-2.69a1.1,1.1,0,0,0-1.1-1.1H53.15a1.1,1.1,0,0,0-1.1,1.1v2.69A1.1,1.1,0,0,0,53.15,18.941Zm.027-3.766h2.636v2.636H53.177ZM53.15,26.1h2.69a1.1,1.1,0,0,0,1.1-1.1V22.3a1.1,1.1,0,0,0-1.1-1.1H53.15a1.1,1.1,0,0,0-1.1,1.1v2.69A1.1,1.1,0,0,0,53.15,26.1Zm.027-3.766h2.636v2.636H53.177Zm-7.7-3.39h2.69a1.1,1.1,0,0,0,1.1-1.1v-2.69a1.1,1.1,0,0,0-1.1-1.1h-2.69a1.1,1.1,0,0,0-1.1,1.1v2.69A1.1,1.1,0,0,0,45.473,18.941Zm.027-3.766h2.636v2.636H45.5ZM32.81,28.021H30.12a1.1,1.1,0,0,0-1.1,1.1v2.69a1.1,1.1,0,0,0,1.1,1.1h2.69a1.1,1.1,0,0,0,1.1-1.1v-2.69A1.1,1.1,0,0,0,32.81,28.021Zm-.027,3.766H30.146V29.151h2.636Zm.027-17.743H30.12a1.1,1.1,0,0,0-1.1,1.1v2.69a1.1,1.1,0,0,0,1.1,1.1h2.69a1.1,1.1,0,0,0,1.1-1.1v-2.69A1.1,1.1,0,0,0,32.81,14.045Zm-.027,3.766H30.146V15.175h2.636Zm12.69,8.118h2.69a1.1,1.1,0,0,0,1.1-1.1v-2.69a1.1,1.1,0,0,0-1.1-1.1h-2.69a1.1,1.1,0,0,0-1.1,1.1v2.69A1.1,1.1,0,0,0,45.473,25.929Zm.027-3.766h2.636V24.8H45.5Zm12-19.581H55.089V1.718A1.72,1.72,0,0,0,53.371,0h-.259a1.72,1.72,0,0,0-1.718,1.718v.864H34.566V1.718A1.72,1.72,0,0,0,32.848,0h-.259a1.72,1.72,0,0,0-1.718,1.718v.864H28.455A2.832,2.832,0,0,0,25.627,5.41V35.742a2.828,2.828,0,0,0,2.825,2.825H57.508a2.828,2.828,0,0,0,2.825-2.825V5.41A2.832,2.832,0,0,0,57.5,2.582Zm-4.981-.864a.589.589,0,0,1,.588-.588h.259a.589.589,0,0,1,.588.588v.864H52.524ZM32,1.718a.589.589,0,0,1,.588-.588h.259a.589.589,0,0,1,.588.588v.864H32V1.718ZM59.2,35.742a1.7,1.7,0,0,1-1.695,1.695H28.452a1.7,1.7,0,0,1-1.695-1.695v0a2.814,2.814,0,0,0,1.7.568H51.361a2.81,2.81,0,0,0,2-.829L59.2,29.636Zm-6.419-1.285a2.416,2.416,0,0,0,.068-.57V30.116a1.291,1.291,0,0,1,1.29-1.29h3.771a2.416,2.416,0,0,0,.57-.068Zm6.419-23.8H35.131a.565.565,0,1,0,0,1.13H59.2V26.407a1.291,1.291,0,0,1-1.29,1.29H54.142a2.422,2.422,0,0,0-2.42,2.42v3.771a1.291,1.291,0,0,1-1.29,1.29H28.455a1.7,1.7,0,0,1-1.7-1.7V11.785h6.114a.565.565,0,1,0,0-1.13H26.757V5.41a1.7,1.7,0,0,1,1.7-1.7h2.415V5.373a1.72,1.72,0,0,0,1.718,1.718.565.565,0,1,0,0-1.13A.589.589,0,0,1,32,5.373V3.712H51.394V5.373a1.72,1.72,0,0,0,1.718,1.718.565.565,0,1,0,0-1.13.589.589,0,0,1-.588-.588V3.712H57.5a1.7,1.7,0,0,1,1.7,1.7ZM32.81,21.033H30.12a1.1,1.1,0,0,0-1.1,1.1v2.69a1.1,1.1,0,0,0,1.1,1.1h2.69a1.1,1.1,0,0,0,1.1-1.1v-2.69A1.1,1.1,0,0,0,32.81,21.033ZM32.783,24.8H30.146V22.163h2.636ZM37.8,18.941h2.69a1.1,1.1,0,0,0,1.1-1.1v-2.69a1.1,1.1,0,0,0-1.1-1.1H37.8a1.1,1.1,0,0,0-1.1,1.1v2.69A1.1,1.1,0,0,0,37.8,18.941Zm.027-3.766H40.46v2.636H37.823ZM45.5,31.787a.565.565,0,0,0-1.129.027,1.1,1.1,0,0,0,1.1,1.1h2.69a1.1,1.1,0,0,0,1.1-1.1v-2.69a1.1,1.1,0,0,0-1.1-1.1h-2.69a1.1,1.1,0,0,0-1.1,1.1V29.9a.565.565,0,0,0,1.13,0v-.749h2.636v2.636Zm-7.7-5.858h2.69a1.1,1.1,0,0,0,1.1-1.1v-2.69a1.1,1.1,0,0,0-1.1-1.1H37.8a1.1,1.1,0,0,0-1.1,1.1v2.69A1.1,1.1,0,0,0,37.8,25.929Zm.027-3.766H40.46V24.8H37.823ZM37.8,32.917h2.69a1.1,1.1,0,0,0,1.1-1.1v-2.69a1.1,1.1,0,0,0-1.1-1.1H37.8a1.1,1.1,0,0,0-1.1,1.1v2.69A1.1,1.1,0,0,0,37.8,32.917Zm.027-3.766H40.46v2.636H37.823Z" transform="translate(-25.627 0)" fill="#bb901a"/>
</svg>
