<svg xmlns="http://www.w3.org/2000/svg" width="38.887" height="35.646" viewBox="0 0 38.887 35.646">
  <g id="image-gallery" transform="translate(0 -2)">
    <g id="Group_729" data-name="Group 729" transform="translate(0 14.478)">
      <path id="Path_1450" data-name="Path 1450" d="M28.278,32.869a3.232,3.232,0,0,1-.826-.107L2.4,26.053a3.27,3.27,0,0,1-2.291-3.97L3.268,10.3a.81.81,0,1,1,1.565.418L1.673,22.5a1.644,1.644,0,0,0,1.15,1.991L27.868,31.2a1.613,1.613,0,0,0,1.972-1.141l1.265-4.689a.81.81,0,0,1,1.565.421L31.407,30.47a3.236,3.236,0,0,1-3.129,2.4Z" transform="translate(0 -9.701)" fill="#bb901a"/>
    </g>
    <g id="Group_730" data-name="Group 730" transform="translate(6.481 2)">
      <path id="Path_1451" data-name="Path 1451" d="M33.165,27.924H7.241A3.244,3.244,0,0,1,4,24.684V5.241A3.244,3.244,0,0,1,7.241,2H33.165a3.244,3.244,0,0,1,3.241,3.241V24.684A3.244,3.244,0,0,1,33.165,27.924ZM7.241,3.62a1.623,1.623,0,0,0-1.62,1.62V24.684a1.623,1.623,0,0,0,1.62,1.62H33.165a1.623,1.623,0,0,0,1.62-1.62V5.241a1.623,1.623,0,0,0-1.62-1.62Z" transform="translate(-4 -2)" fill="#bb901a"/>
    </g>
    <g id="Group_731" data-name="Group 731" transform="translate(11.342 6.861)">
      <path id="Path_1452" data-name="Path 1452" d="M10.241,11.481a3.241,3.241,0,1,1,3.241-3.241A3.244,3.244,0,0,1,10.241,11.481Zm0-4.861a1.62,1.62,0,1,0,1.62,1.62A1.623,1.623,0,0,0,10.241,6.62Z" transform="translate(-7 -5)" fill="#bb901a"/>
    </g>
    <g id="Group_732" data-name="Group 732" transform="translate(6.594 10.992)">
      <path id="Path_1453" data-name="Path 1453" d="M4.88,22.748a.809.809,0,0,1-.574-1.382l7.653-7.653a2.49,2.49,0,0,1,3.437,0l2.278,2.278L23.98,8.425a2.434,2.434,0,0,1,1.85-.875h.018a2.429,2.429,0,0,1,1.845.847l8.474,9.887a.81.81,0,0,1-1.23,1.055L26.464,9.452a.8.8,0,0,0-.616-.282.86.86,0,0,0-.622.292l-6.875,8.249a.807.807,0,0,1-.587.29.78.78,0,0,1-.609-.237L14.25,14.859a.832.832,0,0,0-1.146,0L5.452,22.512a.807.807,0,0,1-.572.237Z" transform="translate(-4.07 -7.55)" fill="#bb901a"/>
    </g>
  </g>
</svg>
