<svg xmlns="http://www.w3.org/2000/svg" width="42.083" height="47.561" viewBox="0 0 42.083 47.561">
  <g id="location_1_" data-name="location(1)" transform="translate(-11.4 -4.55)">
    <path id="Path_1443" data-name="Path 1443" d="M38.934,35.878c.092-.15.185-.3.277-.451,4.156-6.881,6.247-12.9,6.217-17.887a12.987,12.987,0,1,0-25.973,0c-.03,4.99,2.062,11.01,6.218,17.89.092.153.185.3.277.451C17.2,36.959,11.4,40.086,11.4,43.8c0,4.661,9.241,8.312,21.042,8.312S53.483,48.46,53.483,43.8c0-3.713-5.8-6.84-14.55-7.921ZM20.856,17.539a11.586,11.586,0,0,1,23.173,0c.06,9.946-9.237,22.211-11.587,25.152-2.35-2.941-11.647-15.206-11.586-25.154ZM32.442,50.711C20.692,50.711,12.8,47.137,12.8,43.8c0-2.96,5.852-5.714,13.975-6.608a74.127,74.127,0,0,0,5.134,7.062.7.7,0,0,0,1.066,0,74.128,74.128,0,0,0,5.134-7.062c8.121.893,13.975,3.646,13.975,6.608C52.083,47.137,44.191,50.711,32.442,50.711Z" fill="#bb901a"/>
    <path id="Path_1444" data-name="Path 1444" d="M37.564,106.7a19.125,19.125,0,0,1-7.02-1.97.7.7,0,1,0-.733,1.193,20.423,20.423,0,0,0,7.575,2.166.679.679,0,0,0,.09.006.7.7,0,0,0,.088-1.394Z" transform="translate(-10.846 -60.04)" fill="#bb901a"/>
    <path id="Path_1445" data-name="Path 1445" d="M61.375,110.613c-.976.022-1.992.017-2.983-.019a.7.7,0,0,0-.052,1.4c.615.022,1.24.034,1.859.034q.611,0,1.208-.014a.7.7,0,0,0,.684-.716.692.692,0,0,0-.716-.684Z" transform="translate(-27.758 -63.623)" fill="#bb901a"/>
    <path id="Path_1446" data-name="Path 1446" d="M61.044,28.155a5.912,5.912,0,1,0-5.912,5.912A5.912,5.912,0,0,0,61.044,28.155Zm-10.423,0a4.512,4.512,0,1,1,4.512,4.512A4.511,4.511,0,0,1,50.622,28.155Z" transform="translate(-22.691 -10.616)" fill="#bb901a"/>
  </g>
</svg>
