<svg xmlns="http://www.w3.org/2000/svg" xmlns:xlink="http://www.w3.org/1999/xlink" width="279.37" height="125.765" viewBox="0 0 279.37 125.765">
  <defs>
    <clipPath id="clip-path">
      <rect id="Rectangle_1" data-name="Rectangle 1" width="279.37" height="125.765" fill="#fff"/>
    </clipPath>
  </defs>
  <g id="Group_1" data-name="Group 1" clip-path="url(#clip-path)">
    <path id="Path_1" data-name="Path 1" d="M2.144,188.948c0-1.065,0-2.138-.023-3.2l-1.187-.131v-.5H4.667c1.787,0,2.8.841,2.8,2.024,0,.881-.577,1.667-2,1.948,1.718.239,2.431,1.052,2.431,2.047,0,1.121-.955,2.266-3.432,2.266H.934v-.5l1.187-.131c.023-1.051.023-2.123.023-3.2Zm1.214-.124h.676c1.555,0,2.227-.484,2.227-1.614s-.67-1.525-1.978-1.525h-.9C3.358,186.713,3.357,187.764,3.357,188.824Zm.024,3.991h.791c1.646,0,2.45-.6,2.45-1.69,0-1.15-.775-1.727-2.548-1.727H3.357C3.357,190.624,3.357,191.732,3.381,192.815Zm8.621.136.931-.164.021-1.994v-.59c0-.681-.013-1.057-.039-1.552l-1.016-.111V188.1l1.8-.747.195.124.147,1.483a2.258,2.258,0,0,1,1.853-1.607,1.09,1.09,0,0,1,.926.449c0,.585-.242.91-.756.91a1.186,1.186,0,0,1-.785-.313l-.159-.135a3.066,3.066,0,0,0-1.072,1.611v.915l.02,1.97,1.071.189v.441H12Zm8.35.441v-.441l.979-.173.02-1.986v-.582c0-.681-.013-1.065-.038-1.56l-1.041-.111V188.1l1.986-.747.195.124-.038,1.679v1.634l.02,1.984.9.174v.441H20.352Zm.654-8.2a.866.866,0,1,1,.863.791A.8.8,0,0,1,21.006,185.193Zm8.064-.952.182.1L29.2,186.1v4.694l.023,1.983,1.027.176v.441H27.063v-.441l1.027-.176.023-1.982v-5.432l-1.054-.124V184.8Zm6.836,0,.182.1-.051,1.756v4.694l.023,1.983,1.027.176v.441H33.9v-.441l1.027-.176.022-1.982v-5.432l-1.053-.124V184.8Zm8.7,8.326a2.544,2.544,0,0,1-1.891.988,1.545,1.545,0,0,1-1.723-1.549c0-.7.393-1.265,2.133-1.868.395-.134.938-.29,1.452-.408v-.307c0-1.207-.352-1.505-1.2-1.505a3.016,3.016,0,0,0-.7.08l-.245.8c-.111.385-.317.591-.673.591a.534.534,0,0,1-.6-.5,2.34,2.34,0,0,1,2.511-1.534c1.344,0,1.988.587,1.988,2.152v2.633c0,.539.176.733.466.733a.631.631,0,0,0,.5-.272l.262.269a1.224,1.224,0,0,1-1.12.649A1.114,1.114,0,0,1,44.606,192.567Zm-.029-2.373a12,12,0,0,0-1.176.369c-1.126.422-1.268.889-1.268,1.261,0,.654.444.916,1.027.916.426,0,.679-.149,1.417-.655Zm11.879-.557v1.156l.02,1.984.9.174v.441H54.394v-.441l.954-.169.02-1.99v-1.054c0-1.131-.3-1.5-1.061-1.5a2.7,2.7,0,0,0-1.762.755v1.8l.02,1.984.9.174v.441H50.482v-.441l.955-.169.02-1.99V190.2c0-.681-.013-1.058-.038-1.553l-1.016-.111V188.1l1.8-.747.195.124.106,1a3.383,3.383,0,0,1,2.31-1.122C55.916,187.355,56.456,188.014,56.456,189.636Zm7.3,3.277a1.48,1.48,0,0,0,.866-.342l.3.333a1.869,1.869,0,0,1-1.515.651,1.294,1.294,0,0,1-1.465-1.417c0-.305.013-.569.013-1.052v-2.912H60.881v-.544l1.137-.141.338-1.657h.779l-.077,1.687h1.731v.656H63.036V192C63.036,192.641,63.319,192.913,63.753,192.913Zm16.239-7.182H76.964c-.022,1.029-.023,2.08-.023,3.14h2l.174-1.176h.589v3.042H79.12l-.182-1.287h-2c0,1.168,0,2.248.023,3.306l1.2.132v.5H74.516v-.5l1.187-.131c.023-1.049.023-2.121.023-3.2v-.61c0-1.064,0-2.136-.023-3.2l-1.187-.131v-.5h6.413l.09,2.2h-.74Zm8.6,6.836a2.544,2.544,0,0,1-1.891.988,1.545,1.545,0,0,1-1.723-1.549c0-.7.393-1.265,2.133-1.868.395-.134.938-.29,1.452-.408v-.307c0-1.207-.352-1.505-1.2-1.505a3.014,3.014,0,0,0-.7.08l-.245.8c-.111.385-.317.591-.673.591a.534.534,0,0,1-.6-.5,2.34,2.34,0,0,1,2.511-1.534c1.344,0,1.988.587,1.988,2.152v2.633c0,.539.176.733.466.733a.632.632,0,0,0,.5-.272l.262.269a1.224,1.224,0,0,1-1.12.649A1.114,1.114,0,0,1,88.593,192.567Zm-.029-2.373a11.948,11.948,0,0,0-1.176.369c-1.126.422-1.268.889-1.268,1.261,0,.654.444.916,1.027.916.426,0,.678-.149,1.417-.655Zm6.758-4.833-1.053-.124V184.8l1.972-.557.182.1-.051,1.756v2.4a3.444,3.444,0,0,1,2.35-1.142c1.109,0,1.649.659,1.649,2.281v1.156l.02,1.984.9.174v.441H98.309v-.441l.954-.169.02-1.99v-1.054c0-1.132-.3-1.5-1.059-1.5a2.658,2.658,0,0,0-1.814.8v1.751l.02,1.987.889.172v.441H94.335v-.441l.968-.171.02-1.988Zm13.559,7.206a2.545,2.545,0,0,1-1.891.988,1.545,1.545,0,0,1-1.723-1.549c0-.7.393-1.265,2.133-1.868.395-.134.938-.29,1.452-.408v-.307c0-1.207-.353-1.505-1.2-1.505a3.015,3.015,0,0,0-.7.08l-.245.8c-.11.385-.317.591-.673.591a.534.534,0,0,1-.6-.5,2.341,2.341,0,0,1,2.511-1.534c1.345,0,1.989.587,1.989,2.152v2.633c0,.539.176.733.466.733a.632.632,0,0,0,.5-.272l.262.269a1.225,1.225,0,0,1-1.12.649A1.113,1.113,0,0,1,108.881,192.567Zm-.029-2.373a11.948,11.948,0,0,0-1.176.369c-1.126.422-1.268.889-1.268,1.261,0,.654.444.916,1.027.916.426,0,.678-.149,1.417-.655Zm12.482,2.757v.441l-2,.125-.09-.86a2.133,2.133,0,0,1-1.8.9c-1.564,0-2.623-1.242-2.623-3.05a2.844,2.844,0,0,1,2.748-3.149,2.1,2.1,0,0,1,1.679.8v-2.8l-1.1-.124V184.8l2.012-.557.182.1-.051,1.756v6.686Zm-3.572-.1a1.818,1.818,0,0,0,1.441-.72V188.7a2.214,2.214,0,0,0-1.451-.643c-.955,0-1.778.74-1.778,2.423C115.973,192.11,116.733,192.851,117.761,192.851Zm20.3.541v-.5l1.088-.131c.023-1.049.022-2.119.023-3.187l0-3.1-2.79,6.925h-.651l-2.94-6.925.073,2.364v3.9l1.056.156v.5h-2.886v-.5l1.163-.159v-6.978l-1.157-.139v-.5h2.378l2.882,6.816,2.728-6.816h2.54v.5l-1.185.131c-.022,1.05-.022,2.122-.022,3.2v.61c0,1.064,0,2.136.023,3.2l1.187.131v.5H138.06Zm13.019-3.658a2.43,2.43,0,0,1-.089.692h-4.109c.026,1.52.841,2.326,2.089,2.326a2.247,2.247,0,0,0,1.788-.867l.3.233a2.639,2.639,0,0,1-2.472,1.436,2.754,2.754,0,0,1-2.865-3.041,2.985,2.985,0,0,1,2.956-3.158A2.266,2.266,0,0,1,151.079,189.734Zm-1.829.164c.618,0,.76-.281.76-.639a1.376,1.376,0,0,0-1.4-1.342c-.735,0-1.568.548-1.712,1.981Zm12.556,3.053v.441l-2,.125-.09-.86a2.133,2.133,0,0,1-1.8.9c-1.565,0-2.623-1.242-2.623-3.05a2.844,2.844,0,0,1,2.747-3.149,2.1,2.1,0,0,1,1.679.8v-2.8l-1.1-.124V184.8l2.013-.557.182.1-.052,1.756v6.686Zm-3.573-.1a1.819,1.819,0,0,0,1.441-.72V188.7a2.214,2.214,0,0,0-1.452-.643c-.955,0-1.778.74-1.778,2.423C156.445,192.11,157.2,192.851,158.233,192.851Zm7.221.541v-.441l.98-.173.02-1.986v-.582c0-.681-.013-1.065-.039-1.56l-1.041-.111V188.1l1.987-.747.195.124-.038,1.679v1.634l.02,1.984.9.174v.441h-2.987Zm.654-8.2a.867.867,0,1,1,.864.791A.8.8,0,0,1,166.109,185.193Zm7.408,5.157c0,1.552.853,2.4,2.057,2.4a2.081,2.081,0,0,0,1.782-.95l.317.162a2.323,2.323,0,0,1-2.4,1.591,2.786,2.786,0,0,1-2.889-3.087,2.961,2.961,0,0,1,2.978-3.112,2.191,2.191,0,0,1,2.274,1.608.544.544,0,0,1-.6.469.672.672,0,0,1-.7-.592l-.237-.825a2.569,2.569,0,0,0-.692-.1C174.315,187.917,173.517,188.76,173.517,190.35Zm11.8,2.217a2.545,2.545,0,0,1-1.891.988,1.545,1.545,0,0,1-1.723-1.549c0-.7.393-1.265,2.133-1.868.395-.134.938-.29,1.452-.408v-.307c0-1.207-.353-1.505-1.2-1.505a3.011,3.011,0,0,0-.7.08l-.245.8c-.111.385-.317.591-.673.591a.534.534,0,0,1-.6-.5,2.341,2.341,0,0,1,2.511-1.534c1.345,0,1.989.587,1.989,2.152v2.633c0,.539.176.733.466.733a.632.632,0,0,0,.5-.272l.262.269a1.223,1.223,0,0,1-1.12.649A1.113,1.113,0,0,1,185.32,192.567Zm-.029-2.373a11.95,11.95,0,0,0-1.176.369c-1.126.422-1.268.889-1.268,1.261,0,.654.444.916,1.027.916.427,0,.679-.149,1.417-.655Zm7.716-5.952.182.1-.051,1.756v4.694l.022,1.983,1.027.176v.441H191v-.441l1.027-.176.023-1.982v-5.432L191,185.237V184.8Zm17.074,8.378.256-1.436h.8l-.052,1.8a5.6,5.6,0,0,1-2.606.6,4.143,4.143,0,0,1-4.358-4.33,4.212,4.212,0,0,1,4.351-4.33,5.136,5.136,0,0,1,2.487.6l.051,1.8h-.8l-.256-1.43a2.761,2.761,0,0,0-1.323-.344c-1.717,0-3.109,1.287-3.109,3.708s1.256,3.706,3.02,3.706A3.641,3.641,0,0,0,210.081,192.619Zm5.131-2.143a2.959,2.959,0,1,1,5.908,0,2.957,2.957,0,1,1-5.908,0Zm4.691,0c0-1.665-.64-2.561-1.737-2.561-1.122,0-1.737.9-1.737,2.561s.615,2.514,1.737,2.514C219.264,192.992,219.9,192.143,219.9,190.478Zm15.1-.967v1.281l.02,1.984.9.175v.441h-2.981v-.441l.951-.169.02-1.99V189.72c0-1.151-.327-1.48-1.074-1.48a2.593,2.593,0,0,0-1.73.775,5.7,5.7,0,0,1,.031.62v1.156l.02,1.984.9.175v.441h-2.981v-.441l.954-.169.02-1.99v-1.048c0-1.135-.3-1.5-1.062-1.5a2.594,2.594,0,0,0-1.712.754v1.8l.02,1.984.9.174v.441h-2.985v-.441l.955-.169.02-1.99V190.2c0-.681-.013-1.058-.039-1.553l-1.016-.111V188.1l1.8-.747.194.124.106,1a3.291,3.291,0,0,1,2.259-1.121,1.4,1.4,0,0,1,1.524,1.15,3.09,3.09,0,0,1,2.333-1.15C234.4,187.355,235,187.98,235,189.511Zm5.806.692c0-.681-.013-1.058-.038-1.553l-1.016-.111V188.1l1.795-.747.194.123.079.8a2.638,2.638,0,0,1,1.951-.927c1.367,0,2.45,1.159,2.45,3.074s-1.142,3.125-2.645,3.125a2.161,2.161,0,0,1-1.72-.819v.985l.023,2,1.179.187v.442h-3.313v-.442l1.039-.178.023-1.989Zm2.644-2.145a2.577,2.577,0,0,0-1.555.685v3.473a2.065,2.065,0,0,0,1.419.636c.966,0,1.75-.727,1.75-2.317S244.39,188.059,243.449,188.059ZM254,192.567a2.544,2.544,0,0,1-1.891.988,1.545,1.545,0,0,1-1.723-1.549c0-.7.393-1.265,2.133-1.868.395-.134.938-.29,1.452-.408v-.307c0-1.207-.352-1.505-1.2-1.505a3.019,3.019,0,0,0-.7.08l-.245.8c-.111.385-.317.591-.673.591a.534.534,0,0,1-.6-.5,2.34,2.34,0,0,1,2.511-1.534c1.344,0,1.989.587,1.989,2.152v2.633c0,.539.176.733.466.733a.633.633,0,0,0,.5-.272l.262.269a1.224,1.224,0,0,1-1.12.649A1.114,1.114,0,0,1,254,192.567Zm-.029-2.373a11.983,11.983,0,0,0-1.175.369c-1.126.422-1.269.889-1.269,1.261,0,.654.444.916,1.027.916.427,0,.679-.149,1.417-.655Zm11.879-.557v1.156l.02,1.984.9.174v.441h-2.986v-.441l.953-.169.02-1.99v-1.054c0-1.131-.3-1.5-1.061-1.5a2.7,2.7,0,0,0-1.762.755v1.8l.02,1.984.9.174v.441h-2.985v-.441l.955-.169.02-1.99V190.2c0-.681-.013-1.058-.039-1.553l-1.016-.111V188.1l1.8-.747.195.124.106,1a3.383,3.383,0,0,1,2.31-1.122C265.306,187.355,265.846,188.014,265.846,189.636Zm4.308,6.018a.825.825,0,0,1,.861-.535,1.271,1.271,0,0,1,.949.465l.064.063a4.116,4.116,0,0,0,1.168-1.783l.054-.146-2.346-5.654-.706-.1v-.44h3.1v.45l-1.141.131,1.615,4.216,1.582-4.2-1.126-.155v-.44h2.518v.44l-.694.141-2.079,5.253c-.862,2.191-1.574,3.127-2.638,3.127C270.7,196.478,270.157,196.14,270.154,195.654Z" transform="translate(-0.364 -71.774)" fill="#fff"/>
    <path id="Path_2" data-name="Path 2" d="M66.365,42.318a13.691,13.691,0,0,0-1.124-5.972,19.61,19.61,0,0,0-2.389-3.865,15.828,15.828,0,0,0-3.373-2.81H74.515a17.25,17.25,0,0,1,6.393,1.195,17.57,17.57,0,0,1,5.41,3.372,17.187,17.187,0,0,1,3.865,5.2,18.077,18.077,0,0,1,1.756,6.535q.138,2.107.14,4.074V94.03a5.481,5.481,0,0,0,.7,2.951,7.5,7.5,0,0,0,1.545,1.826,8.342,8.342,0,0,0,2.249,1.124H66.365V42.318Zm46.372,0a14.506,14.506,0,0,0-1.054-5.972,17.582,17.582,0,0,0-2.318-3.865,15.946,15.946,0,0,0-3.372-2.81h14.9a16.5,16.5,0,0,1,8.08,1.827,15.622,15.622,0,0,1,5.41,4.918,21.6,21.6,0,0,1,3.091,7.237,38.015,38.015,0,0,1,.983,8.782V94.03a5.481,5.481,0,0,0,.7,2.951,7.506,7.506,0,0,0,1.546,1.826,8.339,8.339,0,0,0,2.248,1.124H112.737V42.318Zm46.513,0a14.516,14.516,0,0,0-1.054-5.972,17.6,17.6,0,0,0-2.318-3.865,15.964,15.964,0,0,0-3.373-2.81h14.9a17.255,17.255,0,0,1,6.394,1.195,18.468,18.468,0,0,1,5.48,3.372,16.67,16.67,0,0,1,3.935,5.2,16.222,16.222,0,0,1,1.615,6.535q.139,2.107.141,4.074V94.03a5.487,5.487,0,0,0,.7,2.951,7.531,7.531,0,0,0,1.545,1.826,8.36,8.36,0,0,0,2.249,1.124H159.249V42.318ZM206.11,81.313q-.072-1.755-.07-4.356V52.716q0-5.479.14-6.6a15.5,15.5,0,0,1,1.686-6.535,19.122,19.122,0,0,1,3.935-5.269,16.7,16.7,0,0,1,5.48-3.443,17.412,17.412,0,0,1,6.323-1.195h15.035a16.121,16.121,0,0,0-3.442,2.81,17.466,17.466,0,0,0-2.367,3.865,14.236,14.236,0,0,0-1.076,5.972V87.285a14.73,14.73,0,0,0,1.076,6.043,16.926,16.926,0,0,0,2.367,3.934,13.038,13.038,0,0,0,3.442,2.67H223.606a17.4,17.4,0,0,1-6.323-1.194,16.638,16.638,0,0,1-5.48-3.443,19.449,19.449,0,0,1-3.935-5.2,15.27,15.27,0,0,1-1.686-6.6c0-.281-.024-1.006-.071-2.178m68.855-32.18a10.988,10.988,0,0,0,3.3-8.08,11.327,11.327,0,0,0-1.4-6.042A9.69,9.69,0,0,0,273,31.5a17.325,17.325,0,0,0-5.762-1.687A57.323,57.323,0,0,0,260,29.39q-2.249,0-4.637.07t-4.777.211a18.239,18.239,0,0,1,8.712,2.951,10.991,10.991,0,0,0-3.653,8.431,10.983,10.983,0,0,0,3.3,8.08,10.819,10.819,0,0,0,7.94,3.3,10.987,10.987,0,0,0,8.079-3.3m-8.079,27.753a10.819,10.819,0,0,0-7.94,3.3A11.546,11.546,0,0,0,259.3,96.7a18.239,18.239,0,0,1-8.712,2.951q2.387.139,4.777.211t4.637.07a57.325,57.325,0,0,0,7.237-.422A17.325,17.325,0,0,0,273,97.823a9.693,9.693,0,0,0,3.864-3.512,11.328,11.328,0,0,0,1.4-6.043,11.277,11.277,0,0,0-11.382-11.382M18.285,0c0,.082,0,.162,0,.242a16.961,16.961,0,0,0-3.562.974,17.725,17.725,0,0,0-5.48,3.443,18.456,18.456,0,0,0-4.005,5.27,15.508,15.508,0,0,0-1.686,6.533q0,.705-.07,7.1t-.07,15.668V78.853q0,10.68.14,20.938H33.764a8.767,8.767,0,0,1-2.318-1.124,7.6,7.6,0,0,1-1.594-1.826,5.371,5.371,0,0,1-.725-2.951v-47.5c0-2.248-.187-4.028-.187-6.13a4.875,4.875,0,0,1,.413-2.131h6.284c5.936,0,9.551-10.655,9.551-10.655H29.127V12.668c0-.078,0-.154,0-.231H50.375C58.4,12.436,60.905,0,60.905,0Z" transform="translate(-1.329)" fill="#fff"/>
  </g>
</svg>
