<svg xmlns="http://www.w3.org/2000/svg" xmlns:xlink="http://www.w3.org/1999/xlink" width="168.734" height="182.133" viewBox="0 0 168.734 182.133">
  <defs>
    <linearGradient id="linear-gradient" x1="0.257" y1="0.28" x2="0.948" y2="0.921" gradientUnits="objectBoundingBox">
      <stop offset="0" stop-color="#f7cc2a"/>
      <stop offset="1" stop-color="#d0ab47"/>
    </linearGradient>
  </defs>
  <path id="Path_1052" data-name="Path 1052" d="M447.245,713.2a4.053,4.053,0,0,1,2.871,6.915,4.056,4.056,0,0,1-5.74-5.732A4.116,4.116,0,0,1,447.245,713.2ZM377.52,748.469a4.041,4.041,0,1,0-2.87-1.184A4.083,4.083,0,0,0,377.52,748.469ZM485.262,755.5a4.063,4.063,0,0,0-2.862,1.184,4.061,4.061,0,1,0,2.862-1.184Zm-83.086,90.909a4.055,4.055,0,1,0,2.862,1.184A4.1,4.1,0,0,0,402.175,846.408Zm-77.54-23.568a4.065,4.065,0,0,0-2.863,1.183,4.053,4.053,0,0,0,0,5.74,4.062,4.062,0,0,0,5.733,0,4.053,4.053,0,0,0-2.87-6.923Zm119.772,8.732a4.041,4.041,0,1,0,2.871,1.184A4.1,4.1,0,0,0,444.407,831.571Zm35.893-41.3a4.054,4.054,0,1,0,2.862,1.184A4.114,4.114,0,0,0,480.3,790.272Zm-8.134-37v67.243a4.053,4.053,0,0,1-4.054,4.054H434.732l-18.7,18.7a4.054,4.054,0,1,1-5.733-5.732l12.968-12.968H406.72l-13.777,13.777a4.054,4.054,0,0,1-5.733-5.733l8.044-8.044h-7.282l-38.349,38.352a4.053,4.053,0,1,1-5.733-5.732l32.617-32.62H356.053l-9.418,9.418a4.054,4.054,0,1,1-5.733-5.732l3.831-3.831a4.044,4.044,0,0,1-3.035-3.909V818.2l-3.772,3.772a4.054,4.054,0,0,1-5.733-5.733l9.505-9.5V768.7a4.054,4.054,0,0,1,4.054-4.054H352.4c.057-.065.1-.138.163-.2l14.593-14.592a4.054,4.054,0,0,1,5.733,5.733l-9.06,9.059h18.656V716.894a4.053,4.053,0,0,1,4.054-4.054h16.89V686.029a4.054,4.054,0,0,1,8.108,0v26.812h15.742l13.046-13.046a4.054,4.054,0,1,1,5.733,5.733L431.38,720.207v24.249a3.943,3.943,0,0,1,.443-.542l43.538-43.539a4.054,4.054,0,1,1,5.733,5.733l-43.11,43.112h16.308L478.3,725.206a4.054,4.054,0,0,1,5.733,5.733l-18.277,18.279h2.355A4.053,4.053,0,0,1,472.166,753.272ZM352.7,816.462h4.068v-43.7h-6.958v43.7Zm12.175,0h5.121v-43.7h-5.121v43.7Zm13.228,0h4.385v-43.7H378.1Zm45.172,0V720.948h-32.68v95.514Zm13.836,0h26.952V757.326H431.38v59.136ZM431.38,749.1v.115h.094C431.443,749.179,431.408,749.143,431.38,749.1Zm9.542,25.494h11.024a4.054,4.054,0,0,0,0-8.108H440.922a4.054,4.054,0,1,0,0,8.108Zm0,17.637h11.024a4.054,4.054,0,0,0,0-8.107H440.922a4.054,4.054,0,1,0,0,8.107Zm8.043,17.639h2.981a4.054,4.054,0,0,0,0-8.108H440.922a4.054,4.054,0,1,0,0,8.108h8.043Z" transform="translate(-320.581 -681.975)" fill="url(#linear-gradient)"/>
</svg>
