<svg xmlns="http://www.w3.org/2000/svg" xmlns:xlink="http://www.w3.org/1999/xlink" width="165.674" height="174.114" viewBox="0 0 165.674 174.114">
  <defs>
    <linearGradient id="linear-gradient" x1="-0.05" y1="0.046" x2="0.92" y2="0.969" gradientUnits="objectBoundingBox">
      <stop offset="0" stop-color="#f7cc2a"/>
      <stop offset="1" stop-color="#d0ab47"/>
    </linearGradient>
  </defs>
  <path id="Path_1051" data-name="Path 1051" d="M1591.987,702.1a4.31,4.31,0,0,0-6.095,0l-29.725,29.727a53.941,53.941,0,0,0-8.752-8.589l8.906-8.906a4.31,4.31,0,0,0-6.1-6.1L1540.063,718.4a53.082,53.082,0,0,0-10.991-4.453l28.517-28.516a4.309,4.309,0,0,0-6.094-6.095l-32.783,32.781c-1.353-.1-2.714-.172-4.093-.172a53.474,53.474,0,0,0-10.04.96l11.366-11.366a4.31,4.31,0,0,0-6.095-6.095l-21.335,21.337v-7.408a4.309,4.309,0,0,0-1.263-3.047L1462.722,681.8a4.31,4.31,0,0,0-7.358,3.047v21.289h-21.287a4.31,4.31,0,0,0-3.048,7.358l24.533,24.531a4.306,4.306,0,0,0,3.046,1.263h9.407a53.291,53.291,0,0,0-1.723,48.885l-15.037,15.037a4.309,4.309,0,0,0,6.094,6.095l13.42-13.42a53.946,53.946,0,0,0,4.37,5.483l-32.364,32.363a4.309,4.309,0,1,0,6.094,6.094l32.58-32.58a53.435,53.435,0,0,0,7.359,4.922l-21.188,21.19a4.31,4.31,0,0,0,6.1,6.094l23.528-23.531a53.068,53.068,0,0,0,14.379,2.827l-15.73,15.732a4.309,4.309,0,1,0,6.092,6.094l22.7-22.7A53.387,53.387,0,0,0,1561,738.894a4.268,4.268,0,0,0,1.03-.738l29.957-29.958A4.308,4.308,0,0,0,1591.987,702.1Zm-65.279,106.44a44.534,44.534,0,0,1-6.149,1.265,44.926,44.926,0,0,1-46.427-25.2,44.706,44.706,0,0,1,4.087-45.316h4.2l7.6,7.6a30.836,30.836,0,1,0,6.094-6.094l-7.594-7.6v-4.2a44.562,44.562,0,0,1,25.984-8.418l.12,0a44.876,44.876,0,0,1,23.249,6.514c.394.24.775.493,1.162.745a44.793,44.793,0,0,1-12.323,80.714Zm-22.348-47.319a11.085,11.085,0,1,0,6.094-6.094l-8.167-8.166a22.2,22.2,0,1,1-6.094,6.094ZM1479.9,724.57l-15.912-15.913V695.25l15.912,15.912Zm-22.005-9.818,15.912,15.913h-13.409l-15.913-15.913Zm104.558-9.744a4.319,4.319,0,1,1,3.043,1.258A4.346,4.346,0,0,1,1562.448,705.008Zm-33.617-20.686a4.32,4.32,0,1,1,3.042,1.258A4.351,4.351,0,0,1,1528.832,684.322Zm47,60.733a4.294,4.294,0,1,1,3.052-1.258A4.332,4.332,0,0,1,1575.834,745.055ZM1533.2,828.2a4.318,4.318,0,1,1-3.051-1.258A4.339,4.339,0,0,1,1533.2,828.2Zm47.408-50.855a4.312,4.312,0,0,1-6.094,6.1,4.312,4.312,0,0,1,6.094-6.1Zm-137.034-12.438a4.3,4.3,0,1,1,3.044,1.267A4.311,4.311,0,0,1,1443.575,764.906Zm-8.635,78.808a4.318,4.318,0,1,1-3.052-1.258A4.344,4.344,0,0,1,1434.939,843.714Z" transform="translate(-1427.577 -676.961)" fill="url(#linear-gradient)"/>
</svg>
