<svg xmlns="http://www.w3.org/2000/svg" xmlns:xlink="http://www.w3.org/1999/xlink" width="187.591" height="209.033" viewBox="0 0 187.591 209.033">
  <defs>
    <linearGradient id="linear-gradient" x1="0.237" y1="0.259" x2="0.768" y2="0.735" gradientUnits="objectBoundingBox">
      <stop offset="0" stop-color="#f7cc2a"/>
      <stop offset="1" stop-color="#d0ab47"/>
    </linearGradient>
  </defs>
  <path id="Path_1050" data-name="Path 1050" d="M1022.059,712.713l10.448-10.45a4.957,4.957,0,0,0-7.012-7.009l-11.169,11.172a90.855,90.855,0,0,0-12.38-7.563l21.8-21.8a4.957,4.957,0,0,0-7.009-7.01L992.165,694.62a90.882,90.882,0,0,0-13.9-3.86l8.5-8.5a4.957,4.957,0,0,0-7.009-7.011l-13.975,13.974c-1.637-.088-3.282-.146-4.935-.146a91.545,91.545,0,0,0-10.933.666l45.767-45.768a4.957,4.957,0,0,0-7.011-7.011l-56.588,56.589c-.075.075-.128.163-.2.242a90.952,90.952,0,0,0-51.609,43.91,4.952,4.952,0,0,0,0,4.627,91.635,91.635,0,0,0,12.607,18.18l-14.51,14.509a4.957,4.957,0,1,0,7.011,7.009l14.489-14.487q2.992,2.7,6.2,5.127l-28.1,28.1a4.957,4.957,0,1,0,7.011,7.009l29.493-29.494a90.638,90.638,0,0,0,17.147,7.865l-18.7,18.7a4.957,4.957,0,1,0,7.011,7.01l22.726-22.73q3.8.77,7.691,1.214l-45.736,45.736a4.957,4.957,0,0,0,7.011,7.009l52.183-52.182a91.164,91.164,0,0,0,24.359-4.128l-19.436,19.438a4.957,4.957,0,1,0,7.01,7.01l39.174-39.175a4.934,4.934,0,0,0,1.107-1.7,91.273,91.273,0,0,0,25.4-30.028,4.96,4.96,0,0,0,0-4.627A91.437,91.437,0,0,0,1022.059,712.713Zm-61.215,68.336a81,81,0,0,1-70.535-41.029,81.158,81.158,0,0,1,121.43-23.092c.1.077.191.169.3.237a81.334,81.334,0,0,1,19.343,22.855A81,81,0,0,1,960.844,781.049Zm0-75.143a34.114,34.114,0,1,0,34.114,34.114A34.154,34.154,0,0,0,960.844,705.906Zm0,58.315a24.2,24.2,0,1,1,24.2-24.2A24.228,24.228,0,0,1,960.844,764.221Zm14.124-24.2A14.124,14.124,0,1,1,960.844,725.9,14.123,14.123,0,0,1,974.968,740.02Zm37.722-84.651a4.977,4.977,0,1,1,3.509,1.448A4.984,4.984,0,0,1,1012.69,655.369Zm-107.974,36.9a4.944,4.944,0,1,1,3.51,1.457A4.986,4.986,0,0,1,904.716,692.269Zm128.694,84.189a4.972,4.972,0,1,1-3.5-1.446A4.983,4.983,0,0,1,1033.409,776.458Zm14.316-68.643a4.944,4.944,0,1,1-3.51-1.457A4.994,4.994,0,0,1,1047.725,707.815ZM962.3,818.523a4.944,4.944,0,1,1-3.5-1.456A4.994,4.994,0,0,1,962.3,818.523Zm-92.259-33.488a4.961,4.961,0,1,1-3.5-1.45A5,5,0,0,1,870.037,785.035Z" transform="translate(-861.58 -635.514)" fill="url(#linear-gradient)"/>
</svg>
